# xmcd
# Copyright (C) 1995-1998 Ti Kan
#
# Track frame offsets:
#       150
#       17835
#       35072
#       53623
#       68889
#       89406
#       114975
#       132785
#       152206
#       170085
#       189215
#
# Disc length: 3310 seconds
#
# Revision: 0
# Processed by: cddbd v1.5.2PL0 Copyright (c) Steve Scherf et al.
# Submitted via: CD-Import v1.0
#
DISCID=8e0cec0b
DTITLE=Hello Bye Bye - -
DYEAR=10
DGENRE=
TTITLE0=Optimism
TTITLE1=Fast
TTITLE2=Gonna Make It
TTITLE3=Vertigo
TTITLE4=I Like The Way
TTITLE5=No Taste
TTITLE6=Good Old Days
TTITLE7=Lost
TTITLE8=Way Out
TTITLE9=Don't Look At The Past
TTITLE10=Out Of My Head
EXTD=
EXTT0=
EXTT1=
EXTT2=
EXTT3=
EXTT4=
EXTT5=
EXTT6=
EXTT7=
EXTT8=
EXTT9=
EXTT10=
PLAYORDER=
